<?xml version="1.0" standalone="no"?>
<!DOCTYPE svg PUBLIC "-//W3C//DTD SVG 20010904//EN"
 "http://www.w3.org/TR/2001/REC-SVG-20010904/DTD/svg10.dtd">
<svg version="1.0" xmlns="http://www.w3.org/2000/svg"
 width="25px" height="20px" viewBox="0 0 1280.000000 815.000000"
 preserveAspectRatio="xMidYMid meet">
<g transform="translate(0.000000,815.000000) scale(0.100000,-0.100000)"
fill="#fa3f40" stroke="none">
<path d="M6280 8138 c-115 -33 -165 -53 -218 -87 -74 -49 -220 -212 -266 -300
-59 -113 -71 -168 -71 -331 0 -124 3 -156 23 -220 42 -133 109 -238 223 -350
59 -58 199 -140 239 -140 10 0 23 -6 29 -13 16 -20 -724 -2588 -780 -2705
-118 -246 -267 -246 -414 0 -27 45 -342 462 -700 926 -357 464 -651 851 -653
860 -2 10 21 38 58 70 80 71 159 170 209 263 110 204 109 462 -2 661 -50 89
-196 251 -270 299 -112 73 -228 104 -352 96 -153 -10 -285 -73 -398 -191 -124
-129 -197 -249 -228 -376 -20 -78 -17 -259 5 -339 46 -170 189 -365 337 -461
36 -23 100 -51 149 -66 115 -34 115 -35 113 -80 -9 -138 -196 -1952 -207
-2009 -50 -249 -160 -336 -322 -255 -33 16 -78 45 -99 63 -22 19 -362 244
-755 501 -393 257 -723 475 -732 484 -17 17 -16 20 18 71 93 138 128 257 128
441 1 151 -11 205 -70 324 -183 365 -588 508 -903 318 -179 -108 -296 -267
-347 -471 -30 -120 -30 -211 -3 -333 39 -168 107 -288 230 -402 195 -181 477
-224 694 -107 40 21 77 36 82 32 20 -13 471 -871 570 -1085 201 -434 329 -860
391 -1306 l7 -55 4392 -3 4391 -2 7 47 c70 484 229 974 485 1492 95 192 439
854 466 898 l14 23 78 -40 c81 -42 185 -70 260 -70 81 0 195 30 291 76 151 74
280 217 348 384 112 278 55 564 -156 783 -176 183 -363 253 -566 213 -147 -28
-244 -86 -371 -218 -97 -101 -155 -208 -180 -333 -24 -117 -15 -293 20 -400
22 -69 77 -178 119 -237 8 -12 9 -23 2 -33 -6 -8 -332 -225 -725 -483 -394
-257 -736 -484 -761 -504 -208 -171 -363 -118 -424 145 -16 69 -208 2087 -200
2095 3 3 42 16 88 29 113 33 179 73 272 167 167 167 235 325 235 546 0 194
-55 335 -188 487 -213 243 -473 304 -742 176 -106 -50 -266 -211 -327 -329
-88 -168 -104 -392 -42 -578 41 -124 145 -267 255 -352 32 -25 60 -51 62 -57
1 -7 -292 -392 -650 -858 -359 -465 -677 -885 -707 -934 -30 -49 -74 -108 -98
-132 -111 -107 -218 -64 -304 125 -26 55 -799 2667 -799 2698 0 7 22 20 49 29
107 35 243 137 319 240 100 135 152 294 152 467 0 127 -21 216 -76 327 -39 79
-61 108 -147 196 -78 78 -117 110 -167 133 -131 63 -294 88 -390 60z"/>
<path d="M2007 1313 c-4 -3 -7 -300 -7 -660 l0 -653 4390 0 4390 0 0 648 c0
491 -3 651 -12 660 -9 9 -997 12 -4383 12 -2405 0 -4375 -3 -4378 -7z"/>
</g>
</svg>
